<svg height="512" viewBox="0 0 64 64" width="512" xmlns="http://www.w3.org/2000/svg"><g id="Bag-briefcase-business-bag-2" data-name="Bag-briefcase-business-bag"><path d="m12 24h40v29h-40z" fill="#786145"/><path d="m46 53h5v3h-5z" fill="#3e3d42"/><path d="m13 53h5v3h-5z" fill="#3e3d42"/><path d="m12 15v38h-7a2.006 2.006 0 0 1 -2-2v-34a2.006 2.006 0 0 1 2-2z" fill="#64513a"/><path d="m16 13v2h-8v-2a1 1 0 0 1 1-1h6a1 1 0 0 1 1 1z" fill="#57565c"/><path d="m56 13v2h-8v-2a1 1 0 0 1 1-1h6a1 1 0 0 1 1 1z" fill="#57565c"/><path d="m12 15h40v9h-40z" fill="#a0815c"/><path d="m61 17v34a2.006 2.006 0 0 1 -2 2h-7v-38h7a2.006 2.006 0 0 1 2 2z" fill="#64513a"/><path d="m13 53h5v1h-5z" fill="#2d2d30"/><path d="m46 53h5v1h-5z" fill="#2d2d30"/><path d="m12 24h40v1h-40z" fill="#69553c"/><path d="m18 24h4v4h-4z" fill="#e0e0e2"/><path d="m42 24h4v4h-4z" fill="#e0e0e2"/><rect fill="#ab8f6e" height="2" rx="1" width="14" x="15" y="16"/><path d="m12 52h40v1h-40z" fill="#50412e"/><path d="m59 14h-2v-1a2.006 2.006 0 0 0 -2-2h-6a2.006 2.006 0 0 0 -2 2v1h-4v-4a5 5 0 0 0 -5-5h-12a5 5 0 0 0 -5 5v4h-4v-1a2.006 2.006 0 0 0 -2-2h-6a2.006 2.006 0 0 0 -2 2v1h-2a3.009 3.009 0 0 0 -3 3v34a3.009 3.009 0 0 0 3 3h7v2a1 1 0 0 0 1 1h5a1 1 0 0 0 1-1v-2h26v2a1 1 0 0 0 1 1h5a1 1 0 0 0 1-1v-2h7a3.009 3.009 0 0 0 3-3v-34a3.009 3.009 0 0 0 -3-3zm-36-4a3.009 3.009 0 0 1 3-3h12a3.009 3.009 0 0 1 3 3v4h-18zm-12 42h-6a1 1 0 0 1 -1-1v-34a1 1 0 0 1 1-1h6zm-2-38v-1h6v1zm8 41h-3v-1h3zm33 0h-3v-1h3zm1-3h-38v-27h4v3a1 1 0 0 0 1 1h4a1 1 0 0 0 1-1v-3h18v3a1 1 0 0 0 1 1h4a1 1 0 0 0 1-1v-3h4zm-32-25v-2h2v2zm24 0v-2h2v2zm8-4h-38v-7h38zm-2-9v-1h6v1zm11 37a1 1 0 0 1 -1 1h-6v-36h6a1 1 0 0 1 1 1z"/></g></svg>