<?xml version="1.0" encoding="iso-8859-1"?>
<!-- Generator: Adobe Illustrator 19.0.0, SVG Export Plug-In . SVG Version: 6.00 Build 0)  -->
<svg version="1.1" id="Capa_1" xmlns="http://www.w3.org/2000/svg" xmlns:xlink="http://www.w3.org/1999/xlink" x="0px" y="0px"
	 viewBox="0 0 512 512" style="enable-background:new 0 0 512 512;" xml:space="preserve">
<circle style="fill:#34BFE0;" cx="256.024" cy="255.993" r="199.987"/>
<path style="fill:#8CCEEA;" d="M418.081,138.779c-6.139-8.465-13.013-16.564-20.643-24.193
	c-14.603-14.603-30.906-26.465-48.268-35.608c-10.226,8.482-16.741,21.284-16.741,35.608c0,25.539,20.704,46.242,46.242,46.242
	C395.34,160.827,409.944,152.005,418.081,138.779z"/>
<rect x="241.266" y="230.728" transform="matrix(-0.5 -0.866 0.866 -0.5 169.2654 746.8647)" style="fill:#63CE68;" width="117.93" height="187.684"/>
<polygon style="fill:#A0E892;" points="249.699,424.744 412.241,330.901 283.62,295.81 "/>
<polygon style="fill:#FFFFFF;" points="352.012,226.583 189.47,320.427 304.837,332.561 "/>
<circle style="fill:#8CCEEA;" cx="186.018" cy="186.008" r="61.993"/>
<path d="M107.925,122.018c1.911,1.721,4.303,2.567,6.687,2.567c2.64,0,5.271-1.04,7.226-3.084
	c3.779-3.914,3.738-10.151-0.125-14.014c-3.905-3.905-10.235-3.906-14.141-0.001c-0.124,0.124-0.271,0.279-0.389,0.41
	C103.487,112.001,103.82,118.323,107.925,122.018z"/>
<path d="M504.652,116.893c-14.133-28.197-47.667-44.109-94.424-44.804c-5.549-0.087-10.065,4.328-10.146,9.85
	c-0.082,5.522,4.328,10.064,9.85,10.146c38.928,0.578,66.218,12.57,76.842,33.769c11.905,23.752,3.602,58.103-23.333,97.163
	c-6.832-43.559-27.155-83.727-58.93-115.503c-35.1-35.1-81.633-56.684-131.03-60.781c-48.809-4.042-97.689,9.096-137.613,37.015
	c-4.526,3.165-5.63,9.398-2.465,13.925c3.165,4.527,9.399,5.63,13.925,2.465c55.804-39.021,126.161-44.268,185.438-18.03
	c-6.662,9.397-10.333,20.686-10.333,32.477c0,31.013,25.229,56.242,56.241,56.242c14.666,0,28.348-5.567,38.644-15.347
	c16.975,27.121,26.786,58.116,28.442,90.622c-12.859,15.27-27.938,30.438-45.069,45.31l-40.065-69.397
	c-1.326-2.297-3.51-3.973-6.072-4.659c-2.428-0.652-5.006-0.351-7.226,0.813c-0.11,0.049-0.228,0.108-0.362,0.186L184.754,312.01
	c-4.783,2.762-6.422,8.876-3.66,13.659l18.793,32.55l-27.275,15.748c-4.783,2.762-6.422,8.876-3.66,13.659
	c1.853,3.208,5.213,5.002,8.669,5.002c1.696,0,3.416-0.433,4.99-1.342l27.275-15.748l11.998,20.781
	c-24.145,8.769-47.371,15.151-69.357,19.058c-10.998-7.174-21.338-15.534-30.841-25.037
	C58.252,326.905,47.936,226.556,97.16,151.733c3.035-4.614,1.756-10.814-2.858-13.85c-4.614-3.037-10.815-1.754-13.85,2.858
	c-23.02,34.993-34.971,76.471-34.375,118.389c-0.341,0.321-0.669,0.66-0.97,1.036c-3.15,3.949-6.191,7.946-9.038,11.877
	C0.249,321.51-9.283,366.411,9.23,398.473c15.643,27.095,49.233,41.43,95.927,41.43c8.562,0,17.569-0.482,26.982-1.456
	c5.311-0.55,10.703-1.26,16.16-2.105c32.222,19.325,69.183,29.641,107.727,29.641c56.089,0,108.821-21.843,148.482-61.504
	s61.504-92.393,61.504-148.482c0-0.996-0.022-1.989-0.036-2.983c3.505-4.354,6.846-8.717,10.009-13.087
	C510.409,192.386,520.591,148.691,504.652,116.893z M405.607,138.847c-6.811,7.598-16.488,11.981-26.936,11.981
	c-19.984,0-36.243-16.259-36.243-36.244c0-8.594,3.02-16.781,8.441-23.253c0.167,0.096,0.337,0.184,0.505,0.277
	c13.965,8.128,27.093,18.15,38.991,30.048c5.411,5.411,10.447,11.094,15.113,17.013
	C405.523,138.727,405.564,138.791,405.607,138.847z M208.218,332.652l54.29,5.678l-16.17,60.348L208.218,332.652z M298.664,322.004
	l-77.237-8.077l108.86-62.85L298.664,322.004z M282.647,340.436l21.155,2.212c0.35,0.037,0.698,0.055,1.044,0.055
	c3.912,0,7.51-2.296,9.129-5.928l8.661-19.426l63.419,16.993l-120.4,69.513L282.647,340.436z M330.882,298.856L353.11,249
	l38.12,66.026L330.882,298.856z M26.548,388.474c-13.545-23.46-5.467-59.521,22.088-99.548c6.92,43.558,27.553,84.2,58.907,115.554
	c5.192,5.192,10.613,10.07,16.231,14.642C75.349,422.965,40.091,411.93,26.548,388.474z M390.367,390.339
	c-35.884,35.885-83.594,55.646-134.341,55.646c-26.726,0-52.608-5.488-76.365-15.919c16.942-4.126,34.437-9.526,52.369-16.173
	l9.059,15.691c1.853,3.208,5.213,5.002,8.669,5.002c1.696,0,3.416-0.433,4.99-1.342l162.212-93.652
	c4.783-2.762,6.422-8.876,3.66-13.659l-9.756-16.899c12.312-10.528,23.664-21.228,33.998-32.036
	C440.183,319.802,421.254,359.453,390.367,390.339z"/>
<path d="M258.007,186.011c0-39.696-32.295-71.992-71.991-71.992s-71.992,32.296-71.992,71.992s32.296,71.991,71.992,71.991
	S258.007,225.707,258.007,186.011z M134.022,186.011c0-28.669,23.324-51.994,51.994-51.994s51.993,23.324,51.993,51.994
	s-23.323,51.993-51.993,51.993S134.022,214.68,134.022,186.011z"/>
<path d="M154.186,349.231l-19.012,10.976c-4.783,2.761-6.422,8.876-3.66,13.659c1.853,3.208,5.213,5.002,8.669,5.002
	c1.696,0,3.415-0.433,4.99-1.342l19.012-10.976c4.783-2.761,6.422-8.876,3.66-13.659
	C165.083,348.11,158.973,346.469,154.186,349.231z"/>
<g>
</g>
<g>
</g>
<g>
</g>
<g>
</g>
<g>
</g>
<g>
</g>
<g>
</g>
<g>
</g>
<g>
</g>
<g>
</g>
<g>
</g>
<g>
</g>
<g>
</g>
<g>
</g>
<g>
</g>
</svg>
