<svg id="Capa_1" enable-background="new 0 0 512 512" height="512" viewBox="0 0 512 512" width="512" xmlns="http://www.w3.org/2000/svg"><g><g><path d="m7.5 110.537h96.976v393.963h-96.976z" fill="#eab14d" transform="matrix(-1 0 0 -1 111.976 615.037)"/></g><g><path d="m24.673 182.258h62.63v32.325h-62.63z" fill="#9dc6fb" transform="matrix(0 1 -1 0 254.409 142.433)"/></g><g><path d="m24.673 277.213h62.63v32.325h-62.63z" fill="#9dc6fb" transform="matrix(0 1 -1 0 349.364 237.388)"/></g><g><path d="m24.673 424.697h62.63v32.325h-62.63z" fill="#9dc6fb" transform="matrix(0 1 -1 0 496.848 384.872)"/></g><g><path d="m407.524 110.537h96.976v393.963h-96.976z" fill="#eab14d"/></g><g><path d="m104.476 39.825h303.049v464.675h-303.049z" fill="#f4d8a5"/></g><g><path d="m387.321 39.825h20.203v464.675h-20.203z" fill="#ecbe6b"/></g><g><g><path d="m121.648 87.303h62.63v32.325h-62.63z" fill="#9dc6fb" transform="matrix(0 1 -1 0 256.429 -49.498)"/></g><g><path d="m190.339 87.303h62.63v32.325h-62.63z" fill="#9dc6fb" transform="matrix(0 1 -1 0 325.12 -118.189)"/></g><g><path d="m259.03 87.303h62.63v32.325h-62.63z" fill="#9dc6fb" transform="matrix(0 1 -1 0 393.811 -186.88)"/></g><g><path d="m327.722 87.303h62.63v32.325h-62.63z" fill="#9dc6fb" transform="matrix(0 1 -1 0 462.502 -255.571)"/></g></g><g><g><path d="m121.648 182.258h62.63v32.325h-62.63z" fill="#9dc6fb" transform="matrix(0 1 -1 0 351.384 45.457)"/></g><g><path d="m190.339 182.258h62.63v32.325h-62.63z" fill="#9dc6fb" transform="matrix(0 1 -1 0 420.075 -23.234)"/></g><g><path d="m259.03 182.258h62.63v32.325h-62.63z" fill="#9dc6fb" transform="matrix(0 1 -1 0 488.766 -91.925)"/></g><g><path d="m327.722 182.258h62.63v32.325h-62.63z" fill="#9dc6fb" transform="matrix(0 1 -1 0 557.457 -160.616)"/></g></g><g><g><path d="m121.648 277.213h62.63v32.325h-62.63z" fill="#9dc6fb" transform="matrix(0 1 -1 0 446.339 140.413)"/></g><g><path d="m190.339 277.213h62.63v32.325h-62.63z" fill="#9dc6fb" transform="matrix(0 1 -1 0 515.03 71.722)"/></g><g><path d="m259.03 277.213h62.63v32.325h-62.63z" fill="#9dc6fb" transform="matrix(0 1 -1 0 583.722 3.031)"/></g><g><path d="m327.722 277.213h62.63v32.325h-62.63z" fill="#9dc6fb" transform="matrix(0 1 -1 0 652.413 -65.661)"/></g></g><g><path d="m134.78 423.687h50.508v46.467h-50.508z" fill="#9dc6fb" transform="matrix(0 1 -1 0 606.955 286.886)"/></g><g><path d="m194.38 442.88h82.833v40.407h-82.833z" fill="#9dc6fb" transform="matrix(0 1 -1 0 698.88 227.287)"/></g><g><path d="m326.711 423.687h50.508v46.467h-50.508z" fill="#9dc6fb" transform="matrix(0 1 -1 0 798.886 94.955)"/></g><g><path d="m234.787 442.88h82.833v40.407h-82.833z" fill="#9dc6fb" transform="matrix(0 1 -1 0 739.287 186.88)"/></g><g><path d="m239.837 211.553h32.325v323.252h-32.325z" fill="#e49542" transform="matrix(0 1 -1 0 629.179 117.179)"/></g><g><path d="m393.382 357.016h24.244v32.325h-24.244z" fill="#e28424"/></g><g><path d="m239.837-137.963h32.325v323.252h-32.325z" fill="#e49542" transform="matrix(0 1 -1 0 279.663 -232.337)"/></g><g><path d="m393.382 7.5h24.244v32.325h-24.244z" fill="#e28424"/></g><g><path d="m424.697 182.258h62.63v32.325h-62.63z" fill="#9dc6fb" transform="matrix(0 1 -1 0 654.433 -257.592)"/></g><g><path d="m424.697 277.213h62.63v32.325h-62.63z" fill="#9dc6fb" transform="matrix(0 1 -1 0 749.388 -162.636)"/></g><g><path d="m424.697 424.697h62.63v32.325h-62.63z" fill="#9dc6fb" transform="matrix(0 1 -1 0 896.872 -15.152)"/></g><g><path d="m39.825 237.236h32.325c4.142 0 7.5-3.358 7.5-7.5v-62.63c0-4.142-3.358-7.5-7.5-7.5h-32.325c-4.142 0-7.5 3.358-7.5 7.5v62.63c0 4.142 3.358 7.5 7.5 7.5zm7.5-62.631h17.325v47.63h-17.325z"/><path d="m32.325 324.691c0 4.142 3.358 7.5 7.5 7.5h32.325c4.142 0 7.5-3.358 7.5-7.5v-62.63c0-4.142-3.358-7.5-7.5-7.5h-32.325c-4.142 0-7.5 3.358-7.5 7.5zm15-55.13h17.325v47.63h-17.325z"/><path d="m32.325 472.175c0 4.142 3.358 7.5 7.5 7.5h32.325c4.142 0 7.5-3.358 7.5-7.5v-62.63c0-4.142-3.358-7.5-7.5-7.5h-32.325c-4.142 0-7.5 3.358-7.5 7.5zm15-55.13h17.325v47.63h-17.325z"/><path d="m504.5 159c4.143 0 7.5-3.358 7.5-7.5v-40.963c0-4.142-3.357-7.5-7.5-7.5h-89.48v-55.712h2.606c4.143 0 7.5-3.358 7.5-7.5v-32.325c0-4.142-3.357-7.5-7.5-7.5h-323.252c-4.142 0-7.5 3.358-7.5 7.5v32.325c0 4.142 3.358 7.5 7.5 7.5h2.606v55.711h-89.48c-4.142 0-7.5 3.358-7.5 7.5v40.964c0 4.142 3.358 7.5 7.5 7.5s7.5-3.358 7.5-7.5v-33.463h81.98v231.479h-2.606c-4.142 0-7.5 3.358-7.5 7.5v32.325c0 4.142 3.358 7.5 7.5 7.5h2.606v100.159h-81.98v-310.444c0-4.142-3.358-7.5-7.5-7.5s-7.5 3.358-7.5 7.5v317.944c0 4.142 3.358 7.5 7.5 7.5h497c4.143 0 7.5-3.358 7.5-7.5v-317.944c0-4.142-3.357-7.5-7.5-7.5s-7.5 3.358-7.5 7.5v310.444h-81.98v-100.159h2.606c4.143 0 7.5-3.358 7.5-7.5v-32.325c0-4.142-3.357-7.5-7.5-7.5h-2.606v-231.479h81.98v33.463c0 4.142 3.357 7.5 7.5 7.5zm-97.058 205.516c.026 0 .051.004.077.004s.051-.004.077-.004h2.529v17.325h-2.577c-.01 0-.019-.001-.029-.001s-.019.001-.029.001h-302.981c-.01 0-.019-.001-.029-.001s-.019.001-.029.001h-2.577v-17.325h2.529c.026 0 .051.004.077.004s.051-.004.077-.004zm-158.942 132.484h-25.407v-67.833h25.407zm15 0v-67.833h25.406v67.833zm136.52 0h-96.113v-75.333c0-4.142-3.357-7.5-7.5-7.5h-80.813c-4.142 0-7.5 3.358-7.5 7.5v75.333h-96.114v-100.159h288.04zm-288.04-147.484v-302.191h231.143c4.143 0 7.5-3.358 7.5-7.5s-3.357-7.5-7.5-7.5h-241.249v-17.325h308.252v17.325h-31.947c-4.143 0-7.5 3.358-7.5 7.5s3.357 7.5 7.5 7.5h21.841v302.191z"/><path d="m169.126 64.65h-32.325c-4.142 0-7.5 3.358-7.5 7.5v62.63c0 4.142 3.358 7.5 7.5 7.5h32.325c4.142 0 7.5-3.358 7.5-7.5v-62.63c0-4.142-3.358-7.5-7.5-7.5zm-7.5 62.63h-17.325v-47.63h17.325z"/><path d="m237.817 64.65h-32.325c-4.142 0-7.5 3.358-7.5 7.5v62.63c0 4.142 3.358 7.5 7.5 7.5h32.325c4.142 0 7.5-3.358 7.5-7.5v-62.63c0-4.142-3.358-7.5-7.5-7.5zm-7.5 62.63h-17.325v-47.63h17.325z"/><path d="m306.508 64.65h-32.325c-4.143 0-7.5 3.358-7.5 7.5v62.63c0 4.142 3.357 7.5 7.5 7.5h32.325c4.143 0 7.5-3.358 7.5-7.5v-62.63c0-4.142-3.358-7.5-7.5-7.5zm-7.5 62.63h-17.325v-47.63h17.325z"/><path d="m375.199 64.65h-32.325c-4.143 0-7.5 3.358-7.5 7.5v62.63c0 4.142 3.357 7.5 7.5 7.5h32.325c4.143 0 7.5-3.358 7.5-7.5v-62.63c0-4.142-3.357-7.5-7.5-7.5zm-7.5 62.63h-17.325v-47.63h17.325z"/><path d="m169.126 159.605h-32.325c-4.142 0-7.5 3.358-7.5 7.5v62.63c0 4.142 3.358 7.5 7.5 7.5h32.325c4.142 0 7.5-3.358 7.5-7.5v-62.63c0-4.142-3.358-7.5-7.5-7.5zm-7.5 62.631h-17.325v-47.63h17.325z"/><path d="m237.817 159.605h-32.325c-4.142 0-7.5 3.358-7.5 7.5v62.63c0 4.142 3.358 7.5 7.5 7.5h32.325c4.142 0 7.5-3.358 7.5-7.5v-62.63c0-4.142-3.358-7.5-7.5-7.5zm-7.5 62.631h-17.325v-47.63h17.325z"/><path d="m306.508 159.605h-32.325c-4.143 0-7.5 3.358-7.5 7.5v62.63c0 4.142 3.357 7.5 7.5 7.5h32.325c4.143 0 7.5-3.358 7.5-7.5v-62.63c0-4.142-3.358-7.5-7.5-7.5zm-7.5 62.631h-17.325v-47.63h17.325z"/><path d="m375.199 159.605h-32.325c-4.143 0-7.5 3.358-7.5 7.5v62.63c0 4.142 3.357 7.5 7.5 7.5h32.325c4.143 0 7.5-3.358 7.5-7.5v-62.63c0-4.142-3.357-7.5-7.5-7.5zm-7.5 62.631h-17.325v-47.63h17.325z"/><path d="m169.126 254.561h-32.325c-4.142 0-7.5 3.358-7.5 7.5v62.63c0 4.142 3.358 7.5 7.5 7.5h32.325c4.142 0 7.5-3.358 7.5-7.5v-62.63c0-4.142-3.358-7.5-7.5-7.5zm-7.5 62.63h-17.325v-47.63h17.325z"/><path d="m237.817 254.561h-32.325c-4.142 0-7.5 3.358-7.5 7.5v62.63c0 4.142 3.358 7.5 7.5 7.5h32.325c4.142 0 7.5-3.358 7.5-7.5v-62.63c0-4.142-3.358-7.5-7.5-7.5zm-7.5 62.63h-17.325v-47.63h17.325z"/><path d="m306.508 254.561h-32.325c-4.143 0-7.5 3.358-7.5 7.5v62.63c0 4.142 3.357 7.5 7.5 7.5h32.325c4.143 0 7.5-3.358 7.5-7.5v-62.63c0-4.142-3.358-7.5-7.5-7.5zm-7.5 62.63h-17.325v-47.63h17.325z"/><path d="m375.199 254.561h-32.325c-4.143 0-7.5 3.358-7.5 7.5v62.63c0 4.142 3.357 7.5 7.5 7.5h32.325c4.143 0 7.5-3.358 7.5-7.5v-62.63c0-4.142-3.357-7.5-7.5-7.5zm-7.5 62.63h-17.325v-47.63h17.325z"/><path d="m136.801 479.675h46.467c4.142 0 7.5-3.358 7.5-7.5v-50.508c0-4.142-3.358-7.5-7.5-7.5h-46.467c-4.142 0-7.5 3.358-7.5 7.5v50.508c0 4.142 3.358 7.5 7.5 7.5zm7.5-50.508h31.467v35.508h-31.467z"/><path d="m328.731 479.675h46.468c4.143 0 7.5-3.358 7.5-7.5v-50.508c0-4.142-3.357-7.5-7.5-7.5h-46.468c-4.143 0-7.5 3.358-7.5 7.5v50.508c0 4.142 3.358 7.5 7.5 7.5zm7.5-50.508h31.468v35.508h-31.468z"/><path d="m479.675 167.105c0-4.142-3.357-7.5-7.5-7.5h-32.325c-4.143 0-7.5 3.358-7.5 7.5v62.63c0 4.142 3.357 7.5 7.5 7.5h32.325c4.143 0 7.5-3.358 7.5-7.5zm-15 55.131h-17.325v-47.63h17.325z"/><path d="m479.675 262.061c0-4.142-3.357-7.5-7.5-7.5h-32.325c-4.143 0-7.5 3.358-7.5 7.5v62.63c0 4.142 3.357 7.5 7.5 7.5h32.325c4.143 0 7.5-3.358 7.5-7.5zm-15 55.13h-17.325v-47.63h17.325z"/><path d="m472.175 402.045h-32.325c-4.143 0-7.5 3.358-7.5 7.5v62.63c0 4.142 3.357 7.5 7.5 7.5h32.325c4.143 0 7.5-3.358 7.5-7.5v-62.63c0-4.142-3.358-7.5-7.5-7.5zm-7.5 62.63h-17.325v-47.63h17.325z"/></g></g></svg>