<svg id="Capa_1" enable-background="new 0 0 512 512" height="512" viewBox="0 0 512 512" width="512" xmlns="http://www.w3.org/2000/svg"><g><g><path d="m325.797 366.678h-298.555c-10.903 0-19.742-8.839-19.742-19.742v-40.191h318.297z" fill="#5986cb"/><path d="m286.65 306.745h39.147v59.933h-39.147z" fill="#4278c3"/></g><path d="m497.156 366.678h-191.359v-184.447c0-5.278 4.278-9.556 9.556-9.556h133.482c3.495 0 6.712 1.908 8.387 4.976l43.608 79.845c2.408 4.409 3.67 9.352 3.67 14.375v87.463c0 4.056-3.288 7.344-7.344 7.344z" fill="#80b4fb"/><path d="m500.831 257.496-43.608-79.845c-1.675-3.068-4.892-4.976-8.387-4.976h-19.615c3.495 0 6.711 1.908 8.387 4.976l43.608 79.845c2.408 4.409 3.67 9.352 3.67 14.375v87.463c0 4.056-3.288 7.344-7.344 7.344h19.615c4.056 0 7.344-3.288 7.344-7.344v-87.463c-.001-5.024-1.262-9.967-3.67-14.375z" fill="#61a2f9"/><path d="m268.408 306.745h-231.234v-234.24c0-1.891 1.533-3.424 3.424-3.424h224.387c1.891 0 3.424 1.533 3.424 3.424v234.24z" fill="#ffd064"/><path d="m264.984 69.081h-27.208c1.891 0 3.424 1.533 3.424 3.424v234.24h27.208v-234.24c0-1.891-1.533-3.424-3.424-3.424z" fill="#ffc250"/><path d="m173.313 125.496h-41.044c-1.767 0-3.199-1.432-3.199-3.199v-53.216h47.441v53.216c.001 1.767-1.432 3.199-3.198 3.199z" fill="#26457d"/><path d="m158.831 69.081v53.216c0 1.767-1.432 3.199-3.199 3.199h17.681c1.767 0 3.199-1.432 3.199-3.199v-53.216z" fill="#21386b"/><g><circle cx="407.577" cy="386.575" fill="#26457d" r="56.344"/><path d="m407.577 330.231c-3.191 0-6.315.279-9.362.789 26.66 4.461 46.983 27.628 46.983 55.556s-20.323 51.095-46.983 55.556c3.046.51 6.171.789 9.362.789 31.118 0 56.344-25.226 56.344-56.344s-25.226-56.346-56.344-56.346z" fill="#21386b"/><circle cx="407.577" cy="386.575" fill="#f9f6f6" r="18.723"/><path d="m407.577 367.852c-2.726 0-5.308.596-7.644 1.643 6.526 2.926 11.079 9.465 11.079 17.08s-4.553 14.155-11.079 17.08c2.336 1.047 4.918 1.643 7.644 1.643 10.34 0 18.723-8.383 18.723-18.723s-8.383-18.723-18.723-18.723z" fill="#dddaec"/></g><circle cx="120.167" cy="386.575" fill="#26457d" r="56.344"/><path d="m120.167 330.231c-3.191 0-6.315.279-9.362.789 26.66 4.461 46.983 27.628 46.983 55.556s-20.323 51.095-46.983 55.556c3.046.51 6.171.789 9.362.789 31.118 0 56.344-25.226 56.344-56.344s-25.226-56.346-56.344-56.346z" fill="#21386b"/><circle cx="120.167" cy="386.575" fill="#f9f6f6" r="18.723"/><path d="m120.167 367.852c-2.726 0-5.308.596-7.644 1.643 6.526 2.926 11.079 9.465 11.079 17.08s-4.553 14.155-11.079 17.08c2.336 1.047 4.918 1.643 7.644 1.643 10.34 0 18.723-8.383 18.723-18.723s-8.382-18.723-18.723-18.723z" fill="#dddaec"/><path d="m305.948 392.661h-65.884c-7.152 0-12.951-5.798-12.951-12.951v-13.033h91.785v13.033c.001 7.153-5.798 12.951-12.95 12.951z" fill="#26457d"/><path d="m301.893 366.678v13.033c0 7.152-5.798 12.951-12.951 12.951h17.006c7.152 0 12.951-5.798 12.951-12.951v-13.033z" fill="#21386b"/><path d="m504.5 336.711h-14.603c-6.413 0-11.611-5.199-11.611-11.611 0-6.413 5.199-11.611 11.611-11.611h14.603z" fill="#da4a54"/><g><path d="m457.223 177.65c-1.675-3.067-4.892-4.976-8.387-4.976h-69.982v98.828c0 5.375 4.357 9.732 9.732 9.732h115.914v-9.364c0-5.023-1.262-9.966-3.67-14.375z" fill="#e4f6ff"/></g><path d="m500.831 257.496-43.608-79.846c-1.675-3.068-4.892-4.976-8.387-4.976h-19.615c3.495 0 6.711 1.908 8.387 4.976l43.608 79.845c2.408 4.409 3.67 9.352 3.67 14.375v9.364h19.614v-9.364c0-5.023-1.261-9.966-3.669-14.374z" fill="#d3effb"/><path d="m410.27 232.766c-.646-14.188-12.336-25.358-26.538-25.358h-4.878v64.094c0 5.375 4.357 9.732 9.732 9.732h23.888z" fill="#26457d"/><g><path d="m206.786 228.623c1.47 1.51 3.421 2.269 5.375 2.269 1.885 0 3.772-.707 5.23-2.125l19.356-18.841c1.45-1.412 2.269-3.35 2.269-5.375s-.818-3.962-2.269-5.375l-19.356-18.841c-2.968-2.889-7.717-2.825-10.605.143-2.89 2.968-2.825 7.717.143 10.606l13.835 13.466-13.835 13.466c-2.968 2.89-3.033 7.639-.143 10.607z"/><path d="m62.6 252.743c3.078 2.771 7.82 2.519 10.592-.562l2.212-2.46v20.846c0 4.143 3.357 7.5 7.5 7.5s7.5-3.357 7.5-7.5v-20.846l2.212 2.46c1.481 1.647 3.526 2.485 5.579 2.485 1.787 0 3.58-.635 5.013-1.923 3.08-2.77 3.332-7.512.562-10.592l-15.29-17.001c-1.423-1.582-3.45-2.485-5.577-2.485s-4.154.903-5.577 2.485l-15.289 17.001c-2.769 3.08-2.517 7.823.563 10.592z"/><path d="m137.502 278.068c4.143 0 7.5-3.357 7.5-7.5v-20.846l2.212 2.46c2.771 3.082 7.514 3.331 10.592.562 3.08-2.77 3.332-7.512.562-10.592l-15.289-17.001c-1.423-1.582-3.45-2.485-5.577-2.485s-4.154.903-5.576 2.485l-15.29 17.001c-2.771 3.08-2.519 7.822.561 10.592 1.434 1.289 3.227 1.923 5.013 1.923 2.054 0 4.099-.838 5.579-2.485l2.214-2.461v20.848c-.001 4.141 3.356 7.499 7.499 7.499z"/><path d="m407.576 360.352c-14.459 0-26.223 11.764-26.223 26.223 0 14.46 11.764 26.224 26.223 26.224 14.46 0 26.224-11.764 26.224-26.224 0-14.459-11.764-26.223-26.224-26.223zm0 37.446c-6.188 0-11.223-5.035-11.223-11.224s5.034-11.223 11.223-11.223 11.224 5.034 11.224 11.223-5.035 11.224-11.224 11.224z"/><path d="m93.944 386.575c0 14.46 11.764 26.224 26.223 26.224 14.46 0 26.224-11.764 26.224-26.224 0-14.459-11.764-26.223-26.224-26.223-14.459 0-26.223 11.764-26.223 26.223zm37.447 0c0 6.188-5.035 11.224-11.224 11.224s-11.223-5.035-11.223-11.224 5.034-11.223 11.223-11.223 11.224 5.034 11.224 11.223z"/><path d="m507.413 253.9-43.607-79.845c-2.991-5.478-8.728-8.881-14.97-8.881h-133.482c-9.404 0-17.056 7.651-17.056 17.056v42.099c0 4.142 3.357 7.5 7.5 7.5s7.5-3.358 7.5-7.5v-42.099c0-1.134.922-2.056 2.056-2.056h56.001v91.328c0 9.502 7.73 17.232 17.232 17.232h108.413v17.254h-7.103c-10.538 0-19.111 8.573-19.111 19.111s8.573 19.111 19.111 19.111h7.103v14.967h-31.768c-10.273-21.531-32.253-36.447-57.656-36.447s-47.382 14.916-57.655 36.447h-36.623v-104.861c0-4.142-3.357-7.5-7.5-7.5s-7.5 3.358-7.5 7.5v44.928h-22.39v-226.74c0-6.023-4.9-10.924-10.924-10.924h-167.088c-4.143 0-7.5 3.358-7.5 7.5s3.357 7.5 7.5 7.5h23.674v45.717c0 5.899 4.799 10.699 10.698 10.699h41.044c5.899 0 10.699-4.799 10.699-10.699v-45.716h76.896v222.664h-216.233v-222.664h23.235c4.143 0 7.5-3.358 7.5-7.5s-3.357-7.5-7.5-7.5h-27.311c-6.023 0-10.924 4.9-10.924 10.924v226.74h-22.174c-4.143 0-7.5 3.357-7.5 7.5v40.191c0 15.021 12.221 27.242 27.242 27.242h7.458v8.005h-27.2c-4.143 0-7.5 3.357-7.5 7.5s3.357 7.5 7.5 7.5h34.7c4.143 0 7.5-3.357 7.5-7.5v-15.505h7.84c-.793 4.012-1.218 8.155-1.218 12.396 0 35.204 28.641 63.845 63.845 63.845 12.098 0 23.886-3.414 34.091-9.874 3.5-2.215 4.542-6.848 2.326-10.348-2.215-3.501-6.85-4.542-10.348-2.326-7.802 4.938-16.816 7.548-26.069 7.548-26.933 0-48.845-21.912-48.845-48.845s21.912-48.844 48.845-48.844 48.845 21.911 48.845 48.844c0 7.737-1.769 15.15-5.257 22.034-1.872 3.694-.395 8.208 3.301 10.08s8.207.396 10.08-3.301c4.562-9.004 6.876-18.698 6.876-28.813 0-4.241-.425-8.384-1.218-12.396h36.82v5.532c0 11.276 9.175 20.45 20.451 20.45h65.884c11.276 0 20.45-9.174 20.45-20.45v-5.532h18.552c-.793 4.012-1.218 8.155-1.218 12.396 0 35.204 28.641 63.845 63.844 63.845 35.204 0 63.845-28.641 63.845-63.845 0-4.241-.425-8.384-1.218-12.396h26.953c8.185 0 14.844-6.659 14.844-14.845v-87.463c-.001-6.247-1.581-12.462-4.588-17.97zm-338.401-135.904h-32.442v-41.415h32.441v41.415zm-48.845 204.735c-25.403 0-47.383 14.916-57.656 36.447h-35.269c-6.75 0-12.242-5.492-12.242-12.242v-32.691h283.298v44.934h-120.475c-10.273-21.532-32.253-36.448-57.656-36.448zm191.231 56.979c0 3.005-2.445 5.45-5.45 5.45h-65.884c-3.006 0-5.451-2.445-5.451-5.45v-5.532h76.785zm96.178 55.709c-26.933 0-48.844-21.912-48.844-48.845s21.911-48.844 48.844-48.844 48.845 21.911 48.845 48.844-21.912 48.845-48.845 48.845zm41.26-255.245c.749 0 1.442.406 1.804 1.07h.001l43.607 79.845c3.368 6.167 2.652 11.664 2.752 12.646h-3.672l-25.701-25.7 3.409-3.409c2.929-2.929 2.929-7.678 0-10.606-2.93-2.929-7.678-2.929-10.607 0l-17.424 17.424c-2.929 2.929-2.929 7.677 0 10.607 2.931 2.929 7.678 2.928 10.607 0l3.408-3.408 15.093 15.093h-52.472l-1.879-41.31c-.789-17.351-14.366-31.115-31.407-32.408v-19.843h62.481zm-62.482 91.328v-56.394c8.987 1.234 15.999 8.685 16.423 17.999l1.848 40.628h-16.039c-1.23 0-2.232-1.002-2.232-2.233zm103.543 57.709c-2.267 0-4.111-1.845-4.111-4.111s1.845-4.111 4.111-4.111h7.103v8.223h-7.103z"/><path d="m348.327 247.167v-26.058c0-4.142-3.357-7.5-7.5-7.5s-7.5 3.358-7.5 7.5v26.058c0 4.142 3.357 7.5 7.5 7.5s7.5-3.358 7.5-7.5z"/></g></g></svg>