<svg id="Capa_1" enable-background="new 0 0 512.011 512.011" height="512" viewBox="0 0 512.011 512.011" width="512" xmlns="http://www.w3.org/2000/svg"><g><g><path d="m284.92 248.437s-6.791-200.392-134.198-240.732c-3.292-1.042-6.275 2.316-4.869 5.47 12.112 27.169 48.847 121.43 33.295 235.262z" fill="#09a76d"/><path d="m227.103 248.437s6.791-200.392 134.198-240.732c3.292-1.042 6.275 2.316 4.869 5.47-12.112 27.169-48.847 121.43-33.295 235.262z" fill="#02905d"/><path d="m361.302 7.705c-15.491 4.904-29.194 12.181-41.323 21.169-15.07 38.921-40.109 122.059-26.789 219.563h39.685c-15.552-113.832 21.184-208.094 33.295-235.263 1.406-3.153-1.576-6.511-4.868-5.469z" fill="#017b4e"/><path d="m244.448 248.437s29.25-126.506 175.268-150.504c3.837-.631 6.254 4.019 3.521 6.785-18.812 19.037-60.091 69.116-62.188 143.719z" fill="#09a76d"/><path d="m419.716 97.933c-13.987 2.299-26.894 5.545-38.815 9.524-19.771 20.823-57.534 69.709-59.537 140.98h39.685c2.097-74.604 43.376-124.682 62.188-143.719 2.733-2.766.316-7.416-3.521-6.785z" fill="#02905d"/><path d="m121.959 237.35 18.756 252.144c.63 8.468 7.684 15.017 16.176 15.017h198.242c8.492 0 15.546-6.549 16.176-15.017l18.756-252.144z" fill="#ac5e2e"/><path d="m267.575 248.437s-29.25-126.506-175.268-150.504c-3.837-.631-6.254 4.019-3.521 6.785 18.812 19.037 60.091 69.116 62.188 143.719z" fill="#57be92"/><path d="m350.379 237.35-18.756 252.144c-.63 8.468-7.684 15.017-16.176 15.017h39.685c8.492 0 15.546-6.549 16.176-15.017l18.756-252.144z" fill="#9e5528"/><path d="m407.398 274.437 3.607-48.493c.347-4.66-3.341-8.632-8.014-8.632h-293.959c-4.673 0-8.36 3.972-8.014 8.632l3.607 48.493c.312 4.195 3.807 7.44 8.014 7.44h286.745c4.207 0 7.702-3.244 8.014-7.44z" fill="#c86d36"/><path d="m402.991 217.313h-39.686c4.673 0 8.361 3.972 8.014 8.632l-3.607 48.493c-.313 4.195-3.807 7.44-8.014 7.44h39.685c4.207 0 7.702-3.245 8.014-7.44l3.607-48.493c.348-4.661-3.34-8.632-8.013-8.632z" fill="#ac5e2e"/></g><path d="m395.44 139.291c3.399 2.368 8.073 1.529 10.44-1.87 19.057-27.369 26.026-26.731 26.026-35.481 0-6.377-5.155-11.564-11.491-11.564 0 0 0 0-.001 0-2.542 0-40.021 5.312-76.944 25.002 8.662-48.861 23.25-85.017 29.548-99.148 4.034-9.045-4.544-18.658-13.981-15.675-37.439 11.854-68.396 37.908-92.012 77.438-3.889 6.51-7.553 13.371-11.012 20.539-24.597-51.167-59.196-84.098-103.029-97.977-9.419-2.982-18.02 6.618-13.982 15.674 6.299 14.132 20.887 50.288 29.549 99.148-20.881-11.135-45.669-20.019-75.028-24.844-10.992-1.806-17.886 11.554-10.072 19.457 16.062 16.254 43.717 50.187 55.073 99.822h-29.493c-9.025 0-16.162 7.688-15.493 16.689l3.607 48.491c.599 8.066 7.404 14.385 15.493 14.385h5.669l8.756 117.711c.293 3.941 3.582 6.944 7.472 6.943.187 0 .375-.007.564-.021 4.131-.308 7.23-3.905 6.923-8.036l-8.674-116.598h245.324l-14.845 199.559c-.337 4.528-4.157 8.075-8.696 8.075h-198.24c-4.539 0-8.359-3.547-8.696-8.074l-3.575-48.058c-.308-4.131-3.906-7.231-8.036-6.923-4.131.308-7.23 3.905-6.923 8.036l3.575 48.059c.918 12.313 11.308 21.96 23.655 21.96h198.242c12.348 0 22.737-9.646 23.655-21.961l14.927-200.673h5.669c8.089 0 14.895-6.318 15.493-14.385v.001l3.607-48.492c.669-9-6.467-16.689-15.493-16.689h-29.493c3.399-14.797 8.519-29.306 15.28-43.239 1.808-3.728.253-8.214-3.474-10.022-3.729-1.81-8.214-.252-10.022 3.474-7.765 16.004-13.522 32.725-17.152 49.788h-89.62c19.577-35.313 60.962-85.796 142.085-102.563-5.051 5.673-10.984 12.927-17.023 21.601-2.368 3.4-1.531 8.073 1.868 10.441zm-239.592-121.856c39.411 15.077 70.342 48.504 92.044 99.508-6.184 15.36-11.495 31.959-15.886 49.728-13.528-16.074-29.156-29.948-46.635-41.385-7.42-49.583-21.393-88.277-29.523-107.851zm-54.397 89.82c63.783 13.191 112.812 49.745 142.057 102.557h-89.612c-10.181-48.01-34.687-82.676-52.445-102.557zm301.54 117.557c.058 0 .233 0 .393.171.159.172.146.348.142.405l-3.607 48.492v.001c-.021.278-.255.496-.534.496-22.979 0-283.667 0-286.744 0-.279 0-.514-.218-.534-.497l-3.607-48.492c-.005-.058-.018-.233.142-.405.159-.171.335-.171.393-.171zm-146.979-23.404c-3.316-5.915-7.809-13.134-12.165-19.341 4.902-22.51 11.309-43.464 19.095-62.289.144-.348.252-.707.341-1.068 18.041-43.356 46.862-83.684 92.893-101.276-8.13 19.573-22.104 58.27-29.523 107.853-35.132 22.986-57.217 52.171-70.641 76.121z"/></g></svg>