<svg height="512" viewBox="0 0 512 512" width="512" xmlns="http://www.w3.org/2000/svg"><g id="Shovel-3" data-name="Shovel"><g id="Filled"><path d="m334.871 204.129a24 24 0 0 0 -.108 33.833l45.467 46.05a24 24 0 0 0 34.049.109l30.921-30.921-79.7-79.7z" fill="#d9d1cc"/><path d="m437.055 245.055a144.543 144.543 0 0 1 -29.055 2.945 143.294 143.294 0 0 1 -80-24.267 23.88 23.88 0 0 0 6.761 14.229l45.467 46.05a24 24 0 0 0 34.049.109l30.923-30.921z" fill="#c4bcb7"/><path d="m85.669 239.931-56.569 56.569c-39.6 39.6-11.314 90.509-11.314 90.509s50.914 28.284 90.514-11.309l56.568-56.569z" fill="#e2dbd5"/><path d="m125.6 279.864a120.016 120.016 0 0 1 -116.672 55.186c-4.506 27.9 8.859 51.959 8.859 51.959s50.913 28.284 90.513-11.309l56.568-56.569z" fill="#d9d1cc"/><path d="m74.355 307.813a16 16 0 0 0 22.628 22.628l84.729-84.729-22.628-22.628z" fill="#d9d1cc"/><path d="m138.74 141.969h216.175v32h-216.175z" fill="#f09b73" transform="matrix(.707 -.707 .707 .707 -39.407 220.802)"/><path d="m161.227 348.032h187.891v32h-187.891z" fill="#f09b73" transform="matrix(.707 -.707 .707 .707 -182.671 287.056)"/><path d="m385.6 233.6a16 16 0 0 0 -22.627 0l-52.687 52.686 22.628 22.628 52.686-52.685a16 16 0 0 0 0-22.629z" fill="#e2dbd5"/><circle cx="284" cy="116" fill="#f2bba5" r="12"/><circle cx="272" cy="144" fill="#f2bba5" r="8"/><path d="m181.712 245.712 55.982-55.982a104.379 104.379 0 0 1 -44.9-.353l-33.707 33.707z" fill="#e58b6c"/><path d="m273.982 367.849a194.769 194.769 0 0 1 -60.63 15.376l-35.923 35.922 11.314 11.314 11.314 11.314z" fill="#e58b6c"/><path d="m344 280a88 88 0 0 1 -24.073-3.351l-9.639 9.639 22.628 22.628 31.245-31.246a88.176 88.176 0 0 1 -20.161 2.33z" fill="#d9d1cc"/><circle cx="300" cy="316" fill="#f2bba5" r="12"/><circle cx="280" cy="344" fill="#f2bba5" r="8"/><g fill="#efebe8"><circle cx="148" cy="252" r="12"/><circle cx="136" cy="280" r="8"/><circle cx="368" cy="248" r="8"/></g><path d="m112 296a87.964 87.964 0 0 1 -22.819-3.012l-14.826 14.825a16 16 0 0 0 22.628 22.628l37.3-37.3a88.051 88.051 0 0 1 -22.283 2.859z" fill="#c4bcb7"/></g><g id="Outline"><path d="m170.527 324.787a8 8 0 0 0 0-11.314l-22.633-22.633 191.214-191.215a47.9 47.9 0 0 0 46.374-12.425c4.508 3.892 6.229 8 11.313 8a8.009 8.009 0 0 0 5.657-13.657l-79.2-79.2a8 8 0 0 0 -11.314 11.314l5.657 5.657a48.015 48.015 0 0 0 -12.395 46.346l-59.513 59.513a8.009 8.009 0 0 0 5.657 13.657c6.28 0 4.876-2.768 61.084-57.771a47.681 47.681 0 0 0 11.307 11.316l-142.025 142.025-11.31-11.315 30.087-30.085a8 8 0 0 0 -11.314-11.314l-75.218 75.214-22.628-22.627a8 8 0 0 0 -11.314 0l-56.57 56.57c-17.99 17.99-25.871 41.057-22.791 66.716a99.037 99.037 0 0 0 10.148 33.341c3.837 6.9 61.442 32.168 103.16-9.539zm158.387-294.16 45.255 45.255a32 32 0 0 1 -45.255-45.255zm-169.829 203.773 11.315 11.31c-81.616 80.454-78.517 81.417-84.729 81.417a8.011 8.011 0 0 1 -5.65-13.66zm-135.344 146.66c-4.483-9.413-19.909-47.977 11.016-78.9l50.913-50.916 16.971 16.971-33.947 33.948a24 24 0 0 0 33.943 33.937l33.943-33.944 16.977 16.977-50.913 50.912c-30.938 30.929-69.522 15.482-78.903 11.015z"/><path d="m508.847 189.553a8 8 0 0 0 -11.314 0l-52.333 52.333-13.887-13.886 52.474-52.473a8 8 0 0 0 -11.314-11.314l-52.473 52.474-17.986-17.987 52.843-52.843a8 8 0 1 0 -11.314-11.314l-52.843 52.844-13.887-13.887 52.844-52.843a8 8 0 0 0 -11.314-11.314l-89.13 89.13a32.08 32.08 0 0 0 -.146 45.108l6.265 6.344-28.938 28.937a7.941 7.941 0 0 0 -3.532 3.533l-38.062 38.058a8 8 0 0 0 11.314 11.314l34.171-34.167 11.315 11.315-122.024 122.026a47.681 47.681 0 0 0 -11.307-11.316l31.5-31.5a8 8 0 0 0 -11.314-11.314l-35.561 35.562a47.9 47.9 0 0 0 -46.376 12.427l-5.657-5.657a8 8 0 1 0 -11.313 11.314c86 86 80.128 81.539 84.853 81.539a8.01 8.01 0 0 0 5.657-13.657l-5.657-5.657a48.015 48.015 0 0 0 12.4-46.346c37.471-37.471 159.276-159.259 162.258-162.258l5.472 5.545a31.973 31.973 0 0 0 45.4.15l88.91-88.91a8 8 0 0 0 .006-11.31zm-325.761 291.82-45.255-45.255a32 32 0 1 1 45.255 45.255zm149.829-183.773-11.315-11.315 47.028-47.028c7.485-7.484 18.728 3.88 11.316 11.316zm64.393-14.449c-9.376 0-12.993-7.14-16.932-10.385l10.89-10.89c14.948-14.995 4.522-40.965-16.981-40.965-14.354 0-19.821 11.18-27.639 17.7l-6.193-6.271a16.039 16.039 0 0 1 .074-22.553l24.973-24.974 68.386 68.387c-22.886 21.224-25.625 29.953-36.578 29.953z"/><circle cx="224" cy="160" r="8"/><circle cx="240" cy="352" r="8"/></g></g></svg>