<svg id="Filled" height="512" viewBox="0 0 512 512" width="512" xmlns="http://www.w3.org/2000/svg"><path d="m424 128h48a16 16 0 0 1 16 16 16 16 0 0 1 -16 16h-48a0 0 0 0 1 0 0v-32a0 0 0 0 1 0 0z" fill="#4f5659"/><path d="m354.5 173.309c-2.435-20.987-21-37.309-43.547-37.309a45.814 45.814 0 0 0 -7.8.677c-3.179-20.196-21.365-35.677-43.327-35.677a45.93 45.93 0 0 0 -5.661.361 44.775 44.775 0 0 0 -76.33 0 45.93 45.93 0 0 0 -5.661-.361c-21.962 0-40.148 15.481-43.331 35.677a45.814 45.814 0 0 0 -7.8-.677c-22.543 0-41.112 16.322-43.543 37.309-17.169 5.691-29.5 21.306-29.5 39.691 0 23.2 19.622 42 43.826 42a45.5 45.5 0 0 0 13.818-2.143c20.649 30.378 62.314 51.143 110.356 51.143s89.707-20.765 110.356-51.143a45.5 45.5 0 0 0 13.818 2.143c24.2 0 43.826-18.8 43.826-42 0-18.385-12.331-34-29.5-39.691z" fill="#95573a"/><path d="m392 336-264 48-88-128h368z" fill="#dadcde"/><circle cx="128" cy="384" fill="#4f5659" r="48"/><circle cx="128" cy="384" fill="#b6b9ba" r="16"/><rect fill="#b6b9ba" height="32" rx="16" width="416" x="24" y="224"/><path d="m128 408a24 24 0 1 0 -24-24 24.027 24.027 0 0 0 24 24zm0-32a8 8 0 1 1 -8 8 8.009 8.009 0 0 1 8-8z"/><path d="m16 432a8 8 0 0 0 8 8h432a8 8 0 0 0 0-16h-72.579a32.078 32.078 0 0 0 3.805-10.695l27.333-149.305h9.441a24 24 0 0 0 .693-47.982l4-48.018h43.307a24 24 0 0 0 0-48h-48v.009a7.959 7.959 0 0 0 -7.963 7.328h-.009l-7.389 88.663h-16.739c.061-1 .1-2 .1-3 0-19.737-12.021-37.473-30.373-45.517-5.039-22.827-25.985-39.483-50.67-39.483q-.838 0-1.682.027c-6.686-20.414-26.717-35.027-49.449-35.027q-.792 0-1.6.025a52.921 52.921 0 0 0 -84.458 0q-.805-.024-1.6-.025c-22.732 0-42.763 14.613-49.449 35.027q-.843-.027-1.682-.027c-24.685 0-45.631 16.656-50.67 39.483-18.346 8.044-30.367 25.78-30.367 45.517 0 1 .036 2 .1 3h-.1a24 24 0 0 0 -4.5 47.57l54.531 79.318a55.884 55.884 0 0 0 -1.169 81.112h-64.862a8 8 0 0 0 -8 8zm415.361-296h40.639a8 8 0 0 1 0 16h-41.972zm-264.223 288a55.82 55.82 0 0 0 16.862-40c0-.685-.027-1.363-.052-2.041l98.95-17.991-1.213.943 45.958 59.089zm204.306-13.326a15.949 15.949 0 0 1 -28.32 7.17l-44.173-56.8 83.288-15.143zm-291.43-229.774a8 8 0 0 0 5.429-6.672c2-17.234 17.305-30.23 35.6-30.23a37.917 37.917 0 0 1 6.441.561 8 8 0 0 0 9.262-6.639c2.6-16.488 17.828-28.922 35.428-28.922a37.711 37.711 0 0 1 4.679.3 7.993 7.993 0 0 0 7.872-3.874 36.778 36.778 0 0 1 62.55 0 7.993 7.993 0 0 0 7.872 3.874 37.711 37.711 0 0 1 4.679-.3c17.6 0 32.83 12.434 35.428 28.922a8 8 0 0 0 9.262 6.639 37.917 37.917 0 0 1 6.441-.561c18.3 0 33.6 13 35.6 30.23a8 8 0 0 0 5.429 6.672c14.364 4.765 24.014 17.663 24.014 32.1 0 1-.063 2-.155 3h-319.69c-.092-1-.155-2-.155-3 0-14.437 9.65-27.335 24.014-32.1zm-48.014 59.1a8.009 8.009 0 0 1 8-8h384a8 8 0 0 1 0 16h-384a8.009 8.009 0 0 1 -8-8zm23.208 24h343.033l-13.02 65.1-204.133 37.116a55.949 55.949 0 0 0 -77.888-32.408zm32.792 120a40 40 0 1 1 40 40 40.045 40.045 0 0 1 -40-40z"/></svg>